<mxfile host="www.draw.io" modified="2019-11-13T01:47:32.795Z" agent="Mozilla/5.0 (Macintosh; Intel Mac OS X 10_14_0) AppleWebKit/537.36 (KHTML, like Gecko) Chrome/78.0.3904.97 Safari/537.36" etag="zl4WnMzr98ymKopdAE5P" version="12.2.4" type="github" pages="1">
  <diagram id="00AGs9WIFjYDUy72hMxy" name="Page-1">
    <mxGraphModel dx="1412" dy="678" grid="1" gridSize="10" guides="1" tooltips="1" connect="1" arrows="1" fold="1" page="1" pageScale="1" pageWidth="827" pageHeight="1169" math="0" shadow="0">
      <root>
        <mxCell id="0"/>
        <mxCell id="1" parent="0"/>
        <mxCell id="SEsEHPRk8On-Nqwk6LlV-1" value="" style="rounded=0;whiteSpace=wrap;html=1;" vertex="1" parent="1">
          <mxGeometry x="20" y="50" width="780" height="180" as="geometry"/>
        </mxCell>
        <mxCell id="SEsEHPRk8On-Nqwk6LlV-2" value="促销" style="rounded=0;whiteSpace=wrap;html=1;" vertex="1" parent="1">
          <mxGeometry x="72" y="135" width="120" height="50" as="geometry"/>
        </mxCell>
        <mxCell id="SEsEHPRk8On-Nqwk6LlV-3" value="代金券" style="rounded=0;whiteSpace=wrap;html=1;" vertex="1" parent="1">
          <mxGeometry x="272" y="135" width="120" height="50" as="geometry"/>
        </mxCell>
        <mxCell id="SEsEHPRk8On-Nqwk6LlV-4" value="支付" style="rounded=0;whiteSpace=wrap;html=1;" vertex="1" parent="1">
          <mxGeometry x="472" y="135" width="120" height="50" as="geometry"/>
        </mxCell>
        <mxCell id="SEsEHPRk8On-Nqwk6LlV-5" value="" style="endArrow=classic;html=1;exitX=1;exitY=0.5;exitDx=0;exitDy=0;entryX=0;entryY=0.5;entryDx=0;entryDy=0;" edge="1" parent="1" source="SEsEHPRk8On-Nqwk6LlV-2" target="SEsEHPRk8On-Nqwk6LlV-3">
          <mxGeometry width="50" height="50" relative="1" as="geometry">
            <mxPoint x="202" y="265" as="sourcePoint"/>
            <mxPoint x="252" y="215" as="targetPoint"/>
          </mxGeometry>
        </mxCell>
        <mxCell id="SEsEHPRk8On-Nqwk6LlV-6" value="" style="endArrow=classic;html=1;exitX=1;exitY=0.5;exitDx=0;exitDy=0;entryX=0;entryY=0.5;entryDx=0;entryDy=0;" edge="1" parent="1">
          <mxGeometry width="50" height="50" relative="1" as="geometry">
            <mxPoint x="392" y="158" as="sourcePoint"/>
            <mxPoint x="472" y="158" as="targetPoint"/>
          </mxGeometry>
        </mxCell>
        <mxCell id="SEsEHPRk8On-Nqwk6LlV-7" value="" style="endArrow=none;html=1;dashed=1;dashPattern=1 1;" edge="1" parent="1">
          <mxGeometry width="50" height="50" relative="1" as="geometry">
            <mxPoint x="36" y="225" as="sourcePoint"/>
            <mxPoint x="36" y="105" as="targetPoint"/>
          </mxGeometry>
        </mxCell>
        <mxCell id="SEsEHPRk8On-Nqwk6LlV-8" value="" style="endArrow=none;html=1;strokeWidth=3;" edge="1" parent="1">
          <mxGeometry width="50" height="50" relative="1" as="geometry">
            <mxPoint x="231.5" y="225" as="sourcePoint"/>
            <mxPoint x="231.5" y="105" as="targetPoint"/>
          </mxGeometry>
        </mxCell>
        <mxCell id="SEsEHPRk8On-Nqwk6LlV-9" value="预付比" style="text;html=1;resizable=0;points=[];align=center;verticalAlign=middle;labelBackgroundColor=#ffffff;" vertex="1" connectable="0" parent="SEsEHPRk8On-Nqwk6LlV-8">
          <mxGeometry x="0.7833" y="1" relative="1" as="geometry">
            <mxPoint x="1.5" y="-23" as="offset"/>
          </mxGeometry>
        </mxCell>
        <mxCell id="SEsEHPRk8On-Nqwk6LlV-10" value="" style="endArrow=none;html=1;dashed=1;dashPattern=1 1;" edge="1" parent="1">
          <mxGeometry width="50" height="50" relative="1" as="geometry">
            <mxPoint x="431.5" y="225" as="sourcePoint"/>
            <mxPoint x="431.5" y="105" as="targetPoint"/>
          </mxGeometry>
        </mxCell>
        <mxCell id="SEsEHPRk8On-Nqwk6LlV-11" value="结算" style="rounded=0;whiteSpace=wrap;html=1;" vertex="1" parent="1">
          <mxGeometry x="670" y="135" width="120" height="50" as="geometry"/>
        </mxCell>
        <mxCell id="SEsEHPRk8On-Nqwk6LlV-12" value="" style="endArrow=classic;html=1;exitX=1;exitY=0.5;exitDx=0;exitDy=0;entryX=0;entryY=0.5;entryDx=0;entryDy=0;" edge="1" parent="1">
          <mxGeometry width="50" height="50" relative="1" as="geometry">
            <mxPoint x="590" y="159" as="sourcePoint"/>
            <mxPoint x="670" y="159" as="targetPoint"/>
          </mxGeometry>
        </mxCell>
        <mxCell id="SEsEHPRk8On-Nqwk6LlV-13" value="" style="group" vertex="1" connectable="0" parent="1">
          <mxGeometry x="430" y="330" width="373" height="40" as="geometry"/>
        </mxCell>
        <mxCell id="SEsEHPRk8On-Nqwk6LlV-14" value="" style="rounded=0;whiteSpace=wrap;html=1;" vertex="1" parent="SEsEHPRk8On-Nqwk6LlV-13">
          <mxGeometry width="373" height="40" as="geometry"/>
        </mxCell>
        <mxCell id="SEsEHPRk8On-Nqwk6LlV-15" value="保险" style="text;html=1;strokeColor=none;fillColor=none;align=center;verticalAlign=middle;whiteSpace=wrap;rounded=0;" vertex="1" parent="SEsEHPRk8On-Nqwk6LlV-13">
          <mxGeometry x="151.5" y="10" width="40" height="20" as="geometry"/>
        </mxCell>
        <mxCell id="SEsEHPRk8On-Nqwk6LlV-16" value="" style="group" vertex="1" connectable="0" parent="1">
          <mxGeometry x="427" y="260" width="373" height="40" as="geometry"/>
        </mxCell>
        <mxCell id="SEsEHPRk8On-Nqwk6LlV-17" value="" style="rounded=0;whiteSpace=wrap;html=1;" vertex="1" parent="SEsEHPRk8On-Nqwk6LlV-16">
          <mxGeometry width="373" height="40" as="geometry"/>
        </mxCell>
        <mxCell id="SEsEHPRk8On-Nqwk6LlV-18" value="预订服务费" style="text;html=1;strokeColor=none;fillColor=none;align=center;verticalAlign=middle;whiteSpace=wrap;rounded=0;" vertex="1" parent="SEsEHPRk8On-Nqwk6LlV-16">
          <mxGeometry x="152" y="10" width="69" height="20" as="geometry"/>
        </mxCell>
        <mxCell id="SEsEHPRk8On-Nqwk6LlV-19" value="房费" style="text;html=1;strokeColor=none;fillColor=none;align=center;verticalAlign=middle;whiteSpace=wrap;rounded=0;" vertex="1" parent="1">
          <mxGeometry x="390" y="50" width="40" height="20" as="geometry"/>
        </mxCell>
        <mxCell id="SEsEHPRk8On-Nqwk6LlV-20" value="" style="group" vertex="1" connectable="0" parent="1">
          <mxGeometry x="430" y="400" width="373" height="40" as="geometry"/>
        </mxCell>
        <mxCell id="SEsEHPRk8On-Nqwk6LlV-21" value="" style="rounded=0;whiteSpace=wrap;html=1;" vertex="1" parent="SEsEHPRk8On-Nqwk6LlV-20">
          <mxGeometry width="373" height="40" as="geometry"/>
        </mxCell>
        <mxCell id="SEsEHPRk8On-Nqwk6LlV-22" value="发票" style="text;html=1;strokeColor=none;fillColor=none;align=center;verticalAlign=middle;whiteSpace=wrap;rounded=0;" vertex="1" parent="SEsEHPRk8On-Nqwk6LlV-20">
          <mxGeometry x="151.5" y="10" width="40" height="20" as="geometry"/>
        </mxCell>
      </root>
    </mxGraphModel>
  </diagram>
</mxfile>
